<svg id="Layer_1" data-name="Layer 1" xmlns="http://www.w3.org/2000/svg" viewBox="0 0 177 121"><defs><style>.cls-1{font-size:52.94px;font-family:AmbroiseStd-Regular, Ambroise Std;}.cls-2{font-size:6.33px;font-family:Consolas;letter-spacing:0.1em;}</style></defs><text class="cls-1" transform="translate(16.99 80.22)">Maisha</text><text class="cls-2" transform="translate(83.31 91.09) scale(1.66 1)">PHOTOGRAPHY</text><path d="M59,52c0-2.83.1-5.66.31-8.48A17.18,17.18,0,0,1,60,39.28a8.1,8.1,0,0,1,2.39-3.68,10.29,10.29,0,0,1,4-1.82,37.28,37.28,0,0,1,4.2-.88,44.64,44.64,0,0,1,8.57-.47c2.86.16,5.65.59,8.45.73s5.62.21,8.43.19,5.73-.37,8.53.55a15.19,15.19,0,0,1,3.82,2A16.48,16.48,0,0,1,111,39.26a18.2,18.2,0,0,0-2.74-3.16,14.83,14.83,0,0,0-3.83-1.63c-2.68-.72-5.49-.26-8.33-.12a80.9,80.9,0,0,1-8.53,0c-2.85-.14-5.67-.43-8.45-.66a43.15,43.15,0,0,0-8.35.33c-1.38.19-2.76.45-4.12.74a9.35,9.35,0,0,0-3.74,1.49,7.45,7.45,0,0,0-2.32,3.25,13.54,13.54,0,0,0-.9,4.06C59.38,46.36,59.13,49.18,59,52Z"/><path d="M66.63,34.92A25.66,25.66,0,0,1,66.69,31a1.79,1.79,0,0,1,.57-1.24,1.42,1.42,0,0,1,.8-.31l.5,0,1.94-.05c1.29,0,2.59,0,3.88.12.33,0,.63,0,1,.09a1.47,1.47,0,0,1,.65.25,1.25,1.25,0,0,1,.4.57,8.84,8.84,0,0,1,.07,2c-.35-.56-.42-1.32-.72-1.73a.45.45,0,0,0-.21-.17H75.3l-.94.09c-1.28.13-2.55.17-3.83.2l-1.91,0-.47,0c-.12,0-.11,0-.11,0a.94.94,0,0,0-.24.46A27.74,27.74,0,0,1,66.63,34.92Z"/><path d="M78.07,45.93A5.58,5.58,0,0,1,79,41.5a6.86,6.86,0,0,1,3.86-2.66,7.63,7.63,0,0,1,4.68.19,11.89,11.89,0,0,1,2,1,5.13,5.13,0,0,1,1.64,1.57,6.19,6.19,0,0,0-1.9-1.08,14.59,14.59,0,0,0-2-.7,8,8,0,0,0-4.11.05A6.86,6.86,0,0,0,79.69,42,6.57,6.57,0,0,0,78.07,45.93Z"/><path d="M97.58,37.5a1.46,1.46,0,0,0-.84.41c-.11.12-.25.22-.28.32a.56.56,0,0,0,0,.36,1.13,1.13,0,0,0,1.25.71,3.59,3.59,0,0,0,.86-.08c.15,0,.24-.28.24-.54,0-.56-.55-1-1.18-1.18a1.91,1.91,0,0,1,1,.21,1.36,1.36,0,0,1,.64.9,1.22,1.22,0,0,1,0,.6.82.82,0,0,1-.46.54,3.55,3.55,0,0,1-1.08.15,2,2,0,0,1-1.08-.27,1.2,1.2,0,0,1-.61-1,1,1,0,0,1,.18-.58,1.33,1.33,0,0,1,.43-.35A1.37,1.37,0,0,1,97.58,37.5Z"/></svg>